<?xml version="1.0" encoding="utf-8"?><svg version="1.1" id="Layer_1" xmlns="http://www.w3.org/2000/svg" xmlns:xlink="http://www.w3.org/1999/xlink" x="0px" y="0px" viewBox="0 0 60 60" enable-background="new 0 0 60 60" xml:space="preserve"><radialGradient id="SVGID_1_" cx="8.1621" cy="17.7633" r="33.2573" fx="39.436" fy="17.5382" gradientTransform="matrix(-9.309130e-17 -1 1.6488 -6.640849e-17 0.6459 61.0641)" gradientUnits="userSpaceOnUse"><stop offset="6.529879e-02" style="stop-color:#68B9AE"/><stop offset="0.2032" style="stop-color:#005466"/><stop offset="0.4727" style="stop-color:#003649"/><stop offset="0.5395" style="stop-color:#002E41"/></radialGradient><path fill="url(#SVGID_1_)" d="M30,20.6c11.5,0,20.8,17.4,20.8,25S41.5,59.3,30,59.3S9.2,53.2,9.2,45.6S18.5,20.6,30,20.6z"/><radialGradient id="SVGID_2_" cx="8.4901" cy="17.095" r="16.7674" fx="24.2576" fy="16.9815" gradientTransform="matrix(-1.006966e-16 -1 1.7835 -6.640849e-17 -0.5361 61.0641)" gradientUnits="userSpaceOnUse"><stop offset="6.529879e-02" style="stop-color:#68B9AE"/><stop offset="0.4535" style="stop-color:#005466"/><stop offset="0.8662" style="stop-color:#003649"/><stop offset="0.9686" style="stop-color:#002E41"/></radialGradient><path fill="url(#SVGID_2_)" d="M30,37.4c8.2,0,14.9,4.2,14.9,9.1s-6.7,9-14.9,9s-14.9-4-14.9-9S21.8,37.4,30,37.4z"/><radialGradient id="SVGID_3_" cx="15.9886" cy="23.0254" r="39.1872" fx="14.5482" fy="23.0407" gradientTransform="matrix(9.309130e-17 1 -1.5232 6.135072e-17 65.1389 -8.8906)" gradientUnits="userSpaceOnUse"><stop offset="0" style="stop-color:#58AAA3"/><stop offset="0.51" style="stop-color:#005466"/><stop offset="0.7297" style="stop-color:#003C4F;stop-opacity:0.9"/><stop offset="0.8175" style="stop-color:#002E41;stop-opacity:0"/></radialGradient><path fill="url(#SVGID_3_)" d="M30,39.4c-11.5,0-20.8-17.4-20.8-25S18.5,0.7,30,0.7s20.8,6.1,20.8,13.7S41.5,39.4,30,39.4z"/><radialGradient id="SVGID_4_" cx="8.1621" cy="17.7633" r="33.2573" fx="39.436" fy="17.5382" gradientTransform="matrix(-9.309130e-17 -1 1.6488 -6.640849e-17 0.6459 61.0641)" gradientUnits="userSpaceOnUse"><stop offset="6.529879e-02" style="stop-color:#68B9AE;stop-opacity:0.1"/><stop offset="0.2032" style="stop-color:#005466;stop-opacity:0.5"/><stop offset="0.4727" style="stop-color:#003649;stop-opacity:0.9007"/><stop offset="0.5395" style="stop-color:#002E41"/></radialGradient><path opacity="0.62" fill="url(#SVGID_4_)" d="M30,20.6c11.5,0,20.8,17.4,20.8,25S41.5,59.3,30,59.3S9.2,53.2,9.2,45.6 S18.5,20.6,30,20.6z"/><radialGradient id="SVGID_5_" cx="8.1621" cy="17.7633" r="33.2573" fx="39.436" fy="17.5382" gradientTransform="matrix(-9.309130e-17 -1 1.6488 -6.640849e-17 0.6459 61.0641)" gradientUnits="userSpaceOnUse"><stop offset="6.529973e-02" style="stop-color:#005E70"/><stop offset="0.4177" style="stop-color:#005466"/><stop offset="0.6263" style="stop-color:#003649"/><stop offset="0.678" style="stop-color:#002E41"/></radialGradient><path opacity="0.23" fill="url(#SVGID_5_)" d="M30,20.6c11.5,0,20.8,17.4,20.8,25S41.5,59.3,30,59.3S9.2,53.2,9.2,45.6 S18.5,20.6,30,20.6z"/><radialGradient id="SVGID_6_" cx="21.5874" cy="23.0422" r="25.2442" fx="20.6595" fy="23.052" gradientTransform="matrix(9.309130e-17 1 -1.5232 6.135072e-17 65.1389 -8.8906)" gradientUnits="userSpaceOnUse"><stop offset="0" style="stop-color:#62A9A0"/><stop offset="0.5223" style="stop-color:#217A81"/><stop offset="0.7369" style="stop-color:#045869"/><stop offset="0.8441" style="stop-color:#005466"/></radialGradient><path fill="url(#SVGID_6_)" d="M30,33.7c-7,0-12.7-12.1-12.7-16.7S23,8.5,30,8.5s12.7,3.8,12.7,8.4S37,33.7,30,33.7z"/></svg>